<svg width="75" height="64" viewBox="0 0 75 64" fill="none" xmlns="http://www.w3.org/2000/svg">
<path d="M23.4647 54.8037C21.3187 55.9591 19.8738 58.1158 19.8738 60.5876C19.8738 60.676 19.8751 60.7637 19.8791 60.8509C20.0547 65.0497 26.8747 65.0497 27.0503 60.8509C27.0543 60.7637 27.0556 60.676 27.0556 60.5876C27.0562 58.1158 25.6107 55.9591 23.4647 54.8037Z" fill="#94A9FF"/>
<path d="M17.0724 43.9337C14.455 45.3166 12.692 47.8978 12.692 50.8561C12.692 50.9619 12.6944 51.0669 12.6991 51.1719C12.9125 56.1965 21.2315 56.1965 21.4457 51.1719C21.4497 51.0669 21.4521 50.9619 21.4521 50.8561C21.4521 47.8978 19.6899 45.3166 17.0724 43.9337Z" fill="#94A9FF"/>
<path d="M28.6197 45.8864C26.6859 46.9235 25.384 48.8594 25.384 51.0782C25.384 51.1575 25.3857 51.2362 25.3887 51.315C25.5469 55.0834 31.6925 55.0834 31.8507 51.315C31.8542 51.2362 31.8554 51.1575 31.8554 51.0782C31.856 48.8594 30.554 46.9235 28.6197 45.8864Z" fill="#94A9FF"/>
<path d="M30.1931 34.1707C27.9029 35.3807 26.3602 37.6393 26.3602 40.2278C26.3602 40.3203 26.3623 40.4122 26.3665 40.5041C26.5532 44.9006 33.8324 44.9006 34.0198 40.5041C34.0233 40.4122 34.0254 40.3203 34.0254 40.2278C34.0254 37.6393 32.4834 35.3807 30.1931 34.1707Z" fill="#94A9FF"/>
<path d="M39.175 35.4186C37.483 36.3261 36.3438 38.02 36.3438 39.9614C36.3438 40.0308 36.3453 40.0998 36.3479 40.1687C36.4863 43.4661 41.8637 43.4661 42.0021 40.1687C42.0052 40.0998 42.0063 40.0308 42.0063 39.9614C42.0068 38.02 40.8676 36.3261 39.175 35.4186Z" fill="#94A9FF"/>
<path d="M50.3076 50.7679C48.8323 51.5622 47.8389 53.045 47.8389 54.7443C47.8389 54.8051 47.8398 54.8654 47.8425 54.9253C47.9633 57.812 52.652 57.812 52.7728 54.9253C52.7755 54.8654 52.7764 54.8051 52.7764 54.7443C52.7768 53.045 51.783 51.5622 50.3076 50.7679Z" fill="#94A9FF"/>
<path d="M52.0161 41.9811C50.6867 42.6942 49.7916 44.0251 49.7916 45.5505C49.7916 45.605 49.7928 45.6592 49.7948 45.7133C49.9036 48.3041 54.1287 48.3041 54.2374 45.7133C54.2399 45.6592 54.2407 45.605 54.2407 45.5505C54.2411 44.0251 53.346 42.6942 52.0161 41.9811Z" fill="#94A9FF"/>
<path d="M46 42L34.8548 51.2275H37.626L32.6897 57.1077H35.596L31 64L42.0169 56.1152H38.9753L43.8418 50.4912H40.3632L46 42Z" fill="url(#paint0_radial_9_2)"/>
<path d="M4.96422 43.9337C3.16474 44.8845 1.95264 46.6591 1.95264 48.6929C1.95264 48.7656 1.95429 48.8378 1.95758 48.91C2.10429 52.3644 7.82359 52.3644 7.97085 48.91C7.97358 48.8378 7.97524 48.7656 7.97524 48.6929C7.97524 46.6591 6.76369 44.8845 4.96422 43.9337Z" fill="#94A9FF"/>
<path d="M74.621 27.7879C74.621 33.5769 70.2264 38.2699 64.8031 38.2699H29.2771C22.0681 38.2699 16.2231 32.0305 16.2231 24.3307C16.2231 16.6332 22.0681 10.3915 29.2771 10.3915C29.9237 10.3915 30.5592 10.4445 31.1822 10.5409C34.1302 4.28967 40.193 0 47.1966 0C55.6711 0 62.7703 6.28289 64.6358 14.7239C64.8217 15.5666 64.9562 16.43 65.0334 17.3096V17.3118C70.3476 17.4413 74.621 22.0814 74.621 27.7879Z" fill="#BAC7CB" fill-opacity="0.4"/>
<path d="M74.621 27.7879C74.621 33.5769 70.2264 38.2699 64.8031 38.2699H29.2771C22.0681 38.2699 16.2231 32.0305 16.2231 24.3307C16.2231 16.6332 22.0681 10.3915 29.2771 10.3915C29.9237 10.3915 30.5592 10.4445 31.1822 10.5409C34.1302 4.28967 40.193 0 47.1966 0C55.6711 0 62.7703 6.28289 64.6358 14.7239C64.8217 15.5666 64.9562 16.43 65.0334 17.3096V17.3118C70.3476 17.4413 74.621 22.0814 74.621 27.7879Z" fill="url(#paint1_linear_9_2)"/>
<path d="M51.5649 34.52C51.5649 39.6316 47.6845 43.7755 42.8958 43.7755H11.5266C5.16106 43.7755 0 38.2661 0 31.4673C0 24.6704 5.16106 19.1591 11.5266 19.1591C12.0974 19.1591 12.6586 19.2059 13.2088 19.291C15.8118 13.7712 21.1652 9.98347 27.3493 9.98347C34.8322 9.98347 41.1008 15.5312 42.748 22.9845C42.9121 23.7287 43.0309 24.4911 43.099 25.2677V25.2696C47.7915 25.384 51.5649 29.4811 51.5649 34.52Z" fill="#BAC7CB" fill-opacity="0.4"/>
<path d="M51.5649 34.52C51.5649 39.6316 47.6845 43.7755 42.8958 43.7755H11.5266C5.16106 43.7755 0 38.2661 0 31.4673C0 24.6704 5.16106 19.1591 11.5266 19.1591C12.0974 19.1591 12.6586 19.2059 13.2088 19.291C15.8118 13.7712 21.1652 9.98347 27.3493 9.98347C34.8322 9.98347 41.1008 15.5312 42.748 22.9845C42.9121 23.7287 43.0309 24.4911 43.099 25.2677V25.2696C47.7915 25.384 51.5649 29.4811 51.5649 34.52Z" fill="url(#paint2_linear_9_2)"/>
<path d="M60.0708 49.7916C58.5954 50.5859 57.6021 52.0687 57.6021 53.768C57.6021 53.8288 57.6029 53.8891 57.6056 53.949C57.7264 56.8358 62.4152 56.8358 62.5359 53.949C62.5386 53.8891 62.5395 53.8288 62.5395 53.768C62.5399 52.0687 61.5461 50.5859 60.0708 49.7916Z" fill="#94A9FF"/>
<path d="M61.6645 38.6859C59.865 39.6367 58.6529 41.4113 58.6529 43.4451C58.6529 43.5178 58.6545 43.59 58.6578 43.6622C58.8045 47.1166 64.5239 47.1166 64.6711 43.6622C64.6738 43.59 64.6755 43.5178 64.6755 43.4451C64.6755 41.4113 63.4639 39.6367 61.6645 38.6859Z" fill="#94A9FF"/>
<path d="M70.1555 40.5832C68.8261 41.2963 67.931 42.6272 67.931 44.1526C67.931 44.2071 67.9322 44.2613 67.9342 44.3155C68.043 46.9062 72.2681 46.9062 72.3768 44.3155C72.3793 44.2613 72.3801 44.2071 72.3801 44.1526C72.3805 42.6272 71.4854 41.2963 70.1555 40.5832Z" fill="#94A9FF"/>
<defs>
<radialGradient id="paint0_radial_9_2" cx="0" cy="0" r="1" gradientUnits="userSpaceOnUse" gradientTransform="translate(38.5 53) rotate(90) scale(15.3108 10.4392)">
<stop stop-color="#FFD88B"/>
<stop offset="1" stop-color="#FFA900"/>
</radialGradient>
<linearGradient id="paint1_linear_9_2" x1="25.472" y1="6.70543" x2="68.7394" y2="35.5085" gradientUnits="userSpaceOnUse">
<stop stop-color="white" stop-opacity="0.7"/>
<stop offset="0.57" stop-color="white" stop-opacity="0"/>
</linearGradient>
<linearGradient id="paint2_linear_9_2" x1="8.16667" y1="15.9043" x2="46.3714" y2="41.3372" gradientUnits="userSpaceOnUse">
<stop stop-color="#878787"/>
<stop offset="1" stop-color="#3D3D3D"/>
</linearGradient>
</defs>
</svg>
