<svg width="72" height="64" viewBox="0 0 72 64" fill="none" xmlns="http://www.w3.org/2000/svg">
<path d="M21.5774 53.9188C19.2249 55.1854 17.6411 57.5496 17.6411 60.2592C17.6411 60.3561 17.6425 60.4523 17.6468 60.5478C17.8393 65.1507 25.3156 65.1507 25.5081 60.5478C25.5124 60.4523 25.5138 60.3561 25.5138 60.2592C25.5145 57.5496 23.9299 55.1854 21.5774 53.9188Z" fill="#94A9FF"/>
<path d="M14.5701 42.0029C11.7008 43.5189 9.76813 46.3485 9.76813 49.5914C9.76813 49.7073 9.77076 49.8225 9.77601 49.9376C10.0099 55.4457 19.1294 55.4457 19.3642 49.9376C19.3686 49.8225 19.3712 49.7073 19.3712 49.5914C19.3712 46.3485 17.4394 43.5189 14.5701 42.0029Z" fill="#94A9FF"/>
<path d="M27.2285 44.1434C25.1086 45.2804 23.6814 47.4026 23.6814 49.8348C23.6814 49.9217 23.6833 50.0081 23.6866 50.0944C23.86 54.2255 30.5969 54.2255 30.7704 50.0944C30.7742 50.0081 30.7755 49.9217 30.7755 49.8348C30.7762 47.4026 29.3489 45.2804 27.2285 44.1434Z" fill="#94A9FF"/>
<path d="M57.9241 34.1884L43.1914 46.1211H46.8546L40.3294 53.7251H44.1712L38.0957 62.6379L52.6589 52.4417H48.6383L55.0712 45.1689H50.4729L57.9241 34.1884Z" fill="url(#paint0_radial_8_9)"/>
<path d="M71.5471 34.0448C71.5471 41.1373 66.1629 46.887 59.5185 46.887H15.9933C7.16104 46.887 0 39.2426 0 29.8092C0 20.3784 7.16104 12.7313 15.9933 12.7313C16.7854 12.7313 17.564 12.7962 18.3274 12.9144C21.9391 5.25556 29.367 0 37.9476 0C48.3302 0 57.028 7.69758 59.3135 18.0392C59.5412 19.0717 59.706 20.1295 59.8006 21.2071V21.2098C66.3114 21.3685 71.5471 27.0533 71.5471 34.0448Z" fill="#BAC7CB" fill-opacity="0.4"/>
<path d="M71.5471 34.0448C71.5471 41.1373 66.1629 46.887 59.5185 46.887H15.9933C7.16105 46.887 0 39.2426 0 29.8092C0 20.3784 7.16105 12.7313 15.9933 12.7313C16.7854 12.7313 17.564 12.7962 18.3274 12.9144C21.9391 5.25556 29.367 0 37.9476 0C48.3302 0 57.028 7.69758 59.3135 18.0392C59.5412 19.0717 59.706 20.1295 59.8006 21.2071V21.2098C66.3114 21.3685 71.5471 27.0533 71.5471 34.0448Z" fill="url(#paint1_linear_8_9)"/>
<defs>
<radialGradient id="paint0_radial_8_9" cx="0" cy="0" r="1" gradientUnits="userSpaceOnUse" gradientTransform="translate(48.0099 48.4132) rotate(90) scale(19.7993 13.7995)">
<stop stop-color="#FFD88B"/>
<stop offset="1" stop-color="#FFA900"/>
</radialGradient>
<linearGradient id="paint1_linear_8_9" x1="11.3314" y1="8.21526" x2="64.3411" y2="43.5037" gradientUnits="userSpaceOnUse">
<stop stop-color="white" stop-opacity="0.7"/>
<stop offset="0.57" stop-color="white" stop-opacity="0"/>
</linearGradient>
</defs>
</svg>
