<svg width="75" height="64" viewBox="0 0 75 64" fill="none" xmlns="http://www.w3.org/2000/svg">
<path d="M36.5196 52.3063C33.7908 53.7755 31.9536 56.5179 31.9536 59.6609C31.9536 59.7733 31.9553 59.8849 31.9603 59.9957C32.1836 65.3348 40.8557 65.3348 41.079 59.9957C41.084 59.8849 41.0856 59.7733 41.0856 59.6609C41.0865 56.5179 39.2484 53.7755 36.5196 52.3063Z" fill="#94A9FF"/>
<path d="M28.3915 38.4845C25.0633 40.2429 22.8214 43.5251 22.8214 47.2868C22.8214 47.4212 22.8245 47.5548 22.8306 47.6883C23.1019 54.0774 33.68 54.0774 33.9524 47.6883C33.9574 47.5548 33.9605 47.4212 33.9605 47.2868C33.9605 43.5251 31.7197 40.2429 28.3915 38.4845Z" fill="#94A9FF"/>
<path d="M43.0745 40.9673C40.6156 42.2862 38.9601 44.7478 38.9601 47.5691C38.9601 47.6699 38.9623 47.7701 38.9661 47.8702C39.1673 52.662 46.9817 52.662 47.1829 47.8702C47.1874 47.7701 47.1889 47.6699 47.1889 47.5691C47.1897 44.7478 45.5342 42.2862 43.0745 40.9673Z" fill="#94A9FF"/>
<path d="M74.2567 35.3341C74.2567 42.6952 68.6686 48.6627 61.7726 48.6627H16.599C7.43225 48.6627 0 40.7288 0 30.9381C0 21.1501 7.43225 13.2134 16.599 13.2134C17.4211 13.2134 18.2292 13.2808 19.0214 13.4035C22.77 5.45459 30.4792 0 39.3847 0C50.1606 0 59.1877 7.9891 61.5598 18.7223C61.7961 19.794 61.9672 20.8918 62.0653 22.0102V22.013C68.8227 22.1778 74.2567 28.0779 74.2567 35.3341Z" fill="#BAC7CB" fill-opacity="0.4"/>
<path d="M74.2567 35.3341C74.2567 42.6952 68.6686 48.6627 61.7726 48.6627H16.599C7.43225 48.6627 0 40.7288 0 30.9381C0 21.1501 7.43225 13.2134 16.599 13.2134C17.4211 13.2134 18.2292 13.2808 19.0214 13.4035C22.77 5.45459 30.4792 0 39.3847 0C50.1606 0 59.1877 7.9891 61.5598 18.7223C61.7961 19.794 61.9672 20.8918 62.0653 22.0102V22.013C68.8227 22.1778 74.2567 28.0779 74.2567 35.3341Z" fill="url(#paint0_linear_6_99)"/>
<defs>
<linearGradient id="paint0_linear_6_99" x1="11.7605" y1="8.52639" x2="66.7777" y2="45.1513" gradientUnits="userSpaceOnUse">
<stop stop-color="white" stop-opacity="0.7"/>
<stop offset="0.57" stop-color="white" stop-opacity="0"/>
</linearGradient>
</defs>
</svg>
