<?xml version="1.0" encoding="UTF-8"?>
<svg id="Layer_2" data-name="Layer 2" xmlns="http://www.w3.org/2000/svg" viewBox="0 0 123.09 45.18">
  <defs>
    <style>
      .cls-1 {
        fill: #fff;
        font-family: Poppins-Black, Poppins;
        font-size: 11.2px;
        font-weight: 800;
        letter-spacing: .2em;
      }

      .cls-2 {
        fill: #939598;
      }

      .cls-2, .cls-3 {
        stroke-width: 0px;
      }

      .cls-3 {
        fill: #d1d3d4;
      }
    </style>
  </defs>
  <g id="Layer_1-2" data-name="Layer 1">
    <g>
      <path class="cls-2" d="m81.64,11.7s-.02-.07-.02-.11m.02.11l-.02-.11h0m.02.11c2.87.71,4.99,3.3,4.99,6.39,0,3.63-2.94,6.58-6.57,6.58h-17.69c-4.52,0-8.18-3.67-8.18-8.2s3.66-8.2,8.18-8.2h.02c1.89-2.92,5.17-4.86,8.9-4.86,5.02,0,9.21,3.49,10.32,8.18m.02.11l-.02-.11"/>
      <path class="cls-3" d="m68.19,14.81c-.01-.06-.03-.13-.04-.19m.04.19l-.04-.19h0m.04.19c5.13,1.26,8.93,5.9,8.93,11.42,0,6.49-5.25,11.76-11.74,11.76h-31.63c-8.08,0-14.62-6.57-14.62-14.66s6.54-14.66,14.62-14.66h.03C37.15,3.47,43.01,0,49.7,0c8.97,0,16.48,6.25,18.45,14.62m.04.19l-.04-.19"/>
      <text class="cls-1" transform="translate(38.05 30.3)"><tspan x="0" y="0">O-weather</tspan></text>
      <path class="cls-2" d="m39.58,26.48c-.01-.05-.02-.1-.04-.15m.04.15l-.04-.15h0m.04.15c4.14,1.02,7.2,4.76,7.2,9.21,0,5.23-4.23,9.49-9.47,9.49H11.79c-6.52,0-11.79-5.3-11.79-11.82s5.27-11.82,11.79-11.82h.03c2.72-4.21,7.45-7.01,12.84-7.01,7.24,0,13.29,5.04,14.88,11.79m.04.15l-.04-.15"/>
    </g>
  </g>
</svg>