<svg width="90" height="64" viewBox="0 0 90 64" fill="none" xmlns="http://www.w3.org/2000/svg">
<path d="M89.0435 30.9804C89.0435 37.4345 84.144 42.6667 78.0976 42.6667H38.4901C30.4529 42.6667 23.9364 35.7104 23.9364 27.126C23.9364 18.5441 30.4529 11.5853 38.4901 11.5853C39.2109 11.5853 39.9194 11.6444 40.6141 11.7519C43.9007 4.7825 50.6601 0 58.4683 0C67.9164 0 75.8312 7.00471 77.9111 16.4154C78.1183 17.355 78.2682 18.3176 78.3543 19.2982V19.3007C84.279 19.4451 89.0435 24.6182 89.0435 30.9804Z" fill="#BAC7CB" fill-opacity="0.4"/>
<path d="M89.0435 30.9804C89.0435 37.4345 84.144 42.6667 78.0976 42.6667H38.4901C30.4529 42.6667 23.9364 35.7104 23.9364 27.126C23.9364 18.5441 30.4529 11.5853 38.4901 11.5853C39.2109 11.5853 39.9194 11.6444 40.6141 11.7519C43.9007 4.7825 50.6601 0 58.4683 0C67.9164 0 75.8312 7.00471 77.9111 16.4154C78.1183 17.355 78.2682 18.3176 78.3543 19.2982V19.3007C84.2791 19.4451 89.0435 24.6182 89.0435 30.9804Z" fill="url(#paint0_linear_6_58)"/>
<path d="M76.5965 50.2514C76.5965 57.8445 70.8324 64 63.7191 64H17.122C7.66644 64 0 55.8161 0 45.7169C0 35.6205 7.66644 27.4337 17.122 27.4337C17.97 27.4337 18.8036 27.5032 19.6208 27.6297C23.4875 19.4304 31.4396 13.8039 40.6257 13.8039C51.7411 13.8039 61.0527 22.0448 63.4996 33.1162C63.7434 34.2216 63.9198 35.3541 64.021 36.5077V36.5106C70.9913 36.6805 76.5965 42.7665 76.5965 50.2514Z" fill="#BAC7CB" fill-opacity="0.4"/>
<path d="M76.5965 50.2514C76.5965 57.8445 70.8324 64 63.7191 64H17.122C7.66644 64 0 55.8161 0 45.7169C0 35.6205 7.66644 27.4337 17.122 27.4337C17.97 27.4337 18.8036 27.5032 19.6208 27.6297C23.4875 19.4304 31.4396 13.8039 40.6257 13.8039C51.7411 13.8039 61.0527 22.0448 63.4996 33.1162C63.7434 34.2216 63.9198 35.3541 64.021 36.5077V36.5106C70.9913 36.6805 76.5965 42.7665 76.5965 50.2514Z" fill="url(#paint1_linear_6_58)"/>
<defs>
<linearGradient id="paint0_linear_6_58" x1="34.2478" y1="7.4758" x2="82.4861" y2="39.5879" gradientUnits="userSpaceOnUse">
<stop stop-color="white" stop-opacity="0.7"/>
<stop offset="0.57" stop-color="white" stop-opacity="0"/>
</linearGradient>
<linearGradient id="paint1_linear_6_58" x1="12.1311" y1="22.599" x2="68.882" y2="60.3779" gradientUnits="userSpaceOnUse">
<stop stop-color="#878787"/>
<stop offset="1" stop-color="#3D3D3D"/>
</linearGradient>
</defs>
</svg>
