<svg width="93" height="68" viewBox="0 0 93 68" fill="none" xmlns="http://www.w3.org/2000/svg">
<path d="M90.0339 17.356C90.0339 26.9413 82.263 34.7119 72.6778 34.7119C63.0925 34.7119 55.322 26.9413 55.322 17.356C55.322 7.77053 63.0925 0 72.6778 0C82.263 0 90.0339 7.77053 90.0339 17.356Z" fill="url(#paint0_radial_8_8)"/>
<g filter="url(#filter0_d_8_8)">
<path d="M84.2662 48.214C84.2662 56.9322 77.925 64 70.0993 64H18.8364C8.43409 64 0 54.6033 0 43.0074C0 31.4148 8.43409 22.0149 18.8364 22.0149C19.7694 22.0149 20.6864 22.0947 21.5855 22.2399C25.8393 12.8255 34.5876 6.3652 44.6936 6.3652C56.922 6.3652 67.166 15.8272 69.8573 28.5394C70.1261 29.8086 70.3202 31.1089 70.4315 32.4335V32.4369C78.0998 32.6319 84.2662 39.6198 84.2662 48.214Z" fill="url(#paint1_linear_8_8)"/>
</g>
<defs>
<filter id="filter0_d_8_8" x="0" y="2.3652" width="92.2662" height="65.6348" filterUnits="userSpaceOnUse" color-interpolation-filters="sRGB">
<feFlood flood-opacity="0" result="BackgroundImageFix"/>
<feColorMatrix in="SourceAlpha" type="matrix" values="0 0 0 0 0 0 0 0 0 0 0 0 0 0 0 0 0 0 127 0" result="hardAlpha"/>
<feOffset dx="4"/>
<feGaussianBlur stdDeviation="2"/>
<feComposite in2="hardAlpha" operator="out"/>
<feColorMatrix type="matrix" values="0 0 0 0 0 0 0 0 0 0 0 0 0 0 0 0 0 0 0.25 0"/>
<feBlend mode="normal" in2="BackgroundImageFix" result="effect1_dropShadow_8_8"/>
<feBlend mode="normal" in="SourceGraphic" in2="effect1_dropShadow_8_8" result="shape"/>
</filter>
<radialGradient id="paint0_radial_8_8" cx="0" cy="0" r="1" gradientUnits="userSpaceOnUse" gradientTransform="translate(72.6778 17.356) rotate(90) scale(24.1576 24.1575)">
<stop stop-color="#FFD88B"/>
<stop offset="1" stop-color="#FFA900"/>
</radialGradient>
<linearGradient id="paint1_linear_8_8" x1="13.3458" y1="16.4636" x2="77.3906" y2="57.3138" gradientUnits="userSpaceOnUse">
<stop offset="0.0001" stop-color="#D7D7D7"/>
<stop offset="1" stop-color="#CDCDCD"/>
</linearGradient>
</defs>
</svg>
